<svg xmlns="http://www.w3.org/2000/svg" viewBox="0 0 48 48" width="96px" height="96px"><path fill="#546E7A" d="M40 23L12.524 8.879 13.476 7.121 40.952 21.242z"></path><path fill="#546E7A" d="M13 6A2 2 0 1 0 13 10 2 2 0 1 0 13 6zM39 20H26v22h13c1.656 0 3-1.343 3-3V23C42 21.343 40.656 20 39 20z"></path><path fill="#B0BEC5" d="M26,20H9c-1.657,0-3,1.343-3,3v16c0,1.657,1.343,3,3,3h17V20z"></path><path fill="#CFD8DC" d="M34 31A4 4 0 1 0 34 39A4 4 0 1 0 34 31Z"></path><path fill="#37474F" d="M9,25c0-0.552,0.448-1,1-1s1,0.448,1,1s-0.448,1-1,1S9,25.552,9,25z M14,26c0.552,0,1-0.448,1-1s-0.448-1-1-1s-1,0.448-1,1S13.448,26,14,26z M18,26c0.552,0,1-0.448,1-1s-0.448-1-1-1s-1,0.448-1,1S17.448,26,18,26z M22,26c0.552,0,1-0.448,1-1s-0.448-1-1-1s-1,0.448-1,1S21.448,26,22,26z M10,30c0.552,0,1-0.448,1-1s-0.448-1-1-1s-1,0.448-1,1S9.448,30,10,30z M14,30c0.552,0,1-0.448,1-1s-0.448-1-1-1s-1,0.448-1,1S13.448,30,14,30z M18,30c0.552,0,1-0.448,1-1s-0.448-1-1-1s-1,0.448-1,1S17.448,30,18,30z M22,30c0.552,0,1-0.448,1-1s-0.448-1-1-1s-1,0.448-1,1S21.448,30,22,30z M10,34c0.552,0,1-0.448,1-1s-0.448-1-1-1s-1,0.448-1,1S9.448,34,10,34z M14,34c0.552,0,1-0.448,1-1s-0.448-1-1-1s-1,0.448-1,1S13.448,34,14,34z M18,34c0.552,0,1-0.448,1-1s-0.448-1-1-1s-1,0.448-1,1S17.448,34,18,34z M22,34c0.552,0,1-0.448,1-1s-0.448-1-1-1s-1,0.448-1,1S21.448,34,22,34z M10,38c0.552,0,1-0.448,1-1s-0.448-1-1-1s-1,0.448-1,1S9.448,38,10,38z M14,38c0.552,0,1-0.448,1-1s-0.448-1-1-1s-1,0.448-1,1S13.448,38,14,38z M18,38c0.552,0,1-0.448,1-1s-0.448-1-1-1s-1,0.448-1,1S17.448,38,18,38z M22,38c0.552,0,1-0.448,1-1s-0.448-1-1-1s-1,0.448-1,1S21.448,38,22,38z"></path><path fill="#CDDC39" d="M29 23H39V28H29z"></path><path fill="#263238" d="M35 23H37V28H35z"></path></svg>