<svg xmlns="http://www.w3.org/2000/svg" viewBox="0 0 48 48" width="96px" height="96px"><path fill="#ffecb3" d="M35.344,27.722c2.63-4.304,4.116-8.251,4.116-14.375c0-4.137-1.167-8.434-3.501-8.434 c-1.644,0-2.938,1.633-4.35,8.01C29.965,20.349,27,24.074,22.934,27.722H35.344z"></path><path fill="#ffe082" d="M35.8,28c1.505-4.304,3.66-7.264,3.66-14.653c0-4.137-1.231-8.355-3.34-8.434 c1,2,1.775,16.204-6.12,22.809L35.8,28z"></path><path fill="#ffca28" d="M31.583,25.561c-0.597,0.797-1.507,2.146-1.507,2.146c-2.022,2.153-4.707,4.405-8.279,6.619 c-6.746,4.181-12.566,5.556-16.968,5.789l0.843,1.77c1.591,0.53,2.917,0.796,5.861,0.796c8.327,0,15.238-3.73,20.563-9.097 c2.411-2.43,4.346-5.229,5.799-8.327l-4.417-1.442L31.583,25.561z"></path><path fill="#ffecb3" d="M34.56,43.49c-0.05-0.02-0.1-0.04-0.15-0.06c-3.35-1.16,2.9-19.32-0.6-19.32 c-1.2,0-3.58,3.38-3.72,3.59c0.11-0.26,1.99-4.43,4.58-4.55c0.11,0,0.21-0.01,0.32,0c2.13,0.19,7.89,2.38,8.11,3.7 C44.01,32.38,38.72,44.21,34.56,43.49z"></path><path fill="#ffe082" d="M27.031,19.312c-9.464-3.604-14.113,10.172-17.37,9.327c-0.083-0.022-0.158-0.057-0.232-0.095 c0.162,0.195,0.361,0.341,0.607,0.417c2.601,0.797,8.237-10.869,14.677-9.661c0,0,2.223,1.986-0.142,5.32 c-3.77,3.794-8.011,5.925-12.681,8.313c-3.58,1.83-6.166,3.779-7.28,6.723l0.218,0.458c4.402-0.232,10.222-1.607,16.968-5.789 c3.575-2.216,6.251-4.468,8.273-6.622C30.07,27.704,31,21,27.031,19.312z"></path><path fill="#ffecb3" d="M29,21c-2-5-8.685-5.593-9.411-5.528c-7.751,0.696-12.185,11.643-10.16,14.073 c0.074,0.037,0.149,0.073,0.232,0.095C12.918,30.484,23,14,29,21z"></path><path fill="#5d4037" d="M4.7,40.1l1,2h1v-2l-2-1V40.1z"></path></svg>