<svg xmlns="http://www.w3.org/2000/svg" viewBox="0 0 48 48" width="96px" height="96px"><rect width="38" height="23" x="5" y="20" fill="#263238"></rect><path fill="#bf360c" d="M43,43H5V25c0,0,5.167-1.003,6.914-1c1.701,0.003,4.031,0.96,5.732,1c2.489,0.058,8.42-1.044,10.91-1&#x9;c1.84,0.033,6.452,2.002,8.292,2C38.653,25.998,43,24,43,24V43z"></path><path fill="#37474f" d="M8.794,32.413c-0.072-0.014-0.146-0.019-0.222-0.007C8.651,32.406,8.719,32.411,8.794,32.413z"></path><rect width="30" height="2" x="9" y="14" fill="#546e7a"></rect><rect width="22" height="2" x="13" y="10" fill="#78909c"></rect><rect width="14" height="2" x="17" y="6" fill="#90a4ae"></rect><path fill="#455a64" d="M5,18h38v2H5V18z"></path><polygon fill="#fdd835" points="42.039,43 42.039,37.231 36.88,37.231 36.88,34 10.833,34 10.833,43"></polygon><path fill="#ff3d00" d="M8.816,43h2.547c0.116-1.071,0.88-2.52,3.423-5c0.217,1.6,0.095,2.57,2.269,3.07&#x9;c-0.836-3.178,1.21-4.17,3.168-6.07c0.217,1.1,0.081,3.847,2.799,5.847c-0.435-5,3.182-4.347,3.725-6.847&#x9;c0.979,2,0.761,3.1,2.066,4.3c0.9,0.707,1.625,1.766,2.461,3.439c-0.979-2.7,2.621-5.019,2.677-6.469&#x9;c2.342,2.788,0.133,3.931,2.691,7.329c0,0.675,0.226,0.388,0.682-0.224L37.157,43h5.841v-1.075c0.001-0.002,0.002-0.004,0.002-0.007&#x9;v-7.384c-0.266,0.434-0.609,0.68-1,0.59c-3.045-0.7,3.04-3.125-3.125-9.25C39.25,28,37.078,33.6,35.447,33&#x9;c-1.74-0.8,1.522-3.3-1.087-6c0,1.7-2.066,3-3.262,3c-0.979,0-0.979-1.4-0.761-2c0.652-1.6,2.284-4.2,4.023-5&#x9;c-3.154,0.2-8.047,1.8-9.787,7c-2.392-1.3-1.414-5.4,0-7c-2.827,0.5-5.546,2.3-6.198,4.6c-0.326,1.4,0.5,3.275-1.196,3.1&#x9;C15.004,29,16.2,27.3,11.416,25c1.864,3.657-0.065,8.399-1.041,8.375C8.369,33.326,9.659,27.818,5,27.065V33.5v3.112V43H8.816z"></path><path fill="#fdd835" d="M42.427,43c-0.535-2.466-1.097-4.223-2.74-5.167c1.25,2.942-1.78,3.204-3.26,5.167H42.427z"></path><path fill="#fdd835" d="M5.282,43h6.136c-1.04-2.846-2.065-5.088-3.961-5.88C9.04,39.839,6.418,40.797,5.282,43z"></path></svg>