<svg xmlns="http://www.w3.org/2000/svg" xmlns:xlink="http://www.w3.org/1999/xlink" viewBox="0,0,256,256" width="96px" height="96px" fill-rule="nonzero"><g fill="#000000" fill-rule="nonzero" stroke="none" stroke-width="1" stroke-linecap="butt" stroke-linejoin="miter" stroke-miterlimit="10" stroke-dasharray="" stroke-dashoffset="0" font-family="none" font-weight="none" font-size="none" text-anchor="none" style="mix-blend-mode: normal"><g transform="scale(5.33333,5.33333)"><path d="M20,38h6v6h-6zM24,4c-4.15,0 -12,2.508 -12,12h6c0,-5.567 4.592,-6 6,-6c1.407,0 6,0.433 6,6c0,1.848 -1.275,3.078 -3.529,5.092c-2.731,2.441 -6.471,5.783 -6.471,11.908v2h6v-2c0,-3.273 1.698,-4.958 4.469,-7.435c2.465,-2.201 5.531,-4.942 5.531,-9.565c0,-9.492 -7.85,-12 -12,-12z"></path></g></g></svg>
