<svg xmlns="http://www.w3.org/2000/svg" viewBox="0 0 48 48" width="96px" height="96px"><path fill="#bf360c" d="M38,43h-6l-3.957,5L22,33h11.681L38,43z"></path><path fill="#f4511e" d="M27,33l-5.967,15L17,43h-6l4.293-10H27z"></path><path fill="#b0bec5" d="M40.325,22.596c-0.547-0.993-0.547-2.198,0-3.191l0.262-0.476c0.855-1.555,0.333-3.509-1.187-4.428&#x9;l-0.465-0.282c-0.97-0.588-1.572-1.63-1.596-2.763l-0.012-0.544c-0.036-1.775-1.466-3.205-3.241-3.241l-0.544-0.012&#x9;c-1.134-0.023-2.177-0.626-2.763-1.596l-0.282-0.465c-0.919-1.519-2.873-2.042-4.428-1.187l-0.476,0.262&#x9;c-0.993,0.547-2.198,0.547-3.191,0l-0.475-0.261C20.372,3.557,18.419,4.08,17.5,5.599l-0.282,0.465&#x9;c-0.588,0.97-1.63,1.572-2.763,1.596l-0.544,0.012c-1.775,0.036-3.205,1.466-3.241,3.241l-0.012,0.544&#x9;c-0.023,1.134-0.626,2.177-1.596,2.763l-0.465,0.282c-1.518,0.919-2.042,2.873-1.187,4.428l0.262,0.476&#x9;c0.547,0.993,0.547,2.198,0,3.191l-0.261,0.475c-0.855,1.555-0.333,3.509,1.187,4.428l0.465,0.282&#x9;c0.97,0.588,1.572,1.63,1.596,2.763l0.012,0.544c0.036,1.775,1.466,3.205,3.241,3.241l0.544,0.012&#x9;c1.134,0.023,2.177,0.626,2.763,1.596l0.282,0.465c0.919,1.518,2.873,2.042,4.428,1.187l0.476-0.262&#x9;c0.993-0.547,2.198-0.547,3.191,0l0.476,0.262c1.555,0.855,3.509,0.333,4.428-1.187l0.282-0.465c0.588-0.97,1.63-1.572,2.763-1.596&#x9;l0.544-0.012c1.775-0.036,3.205-1.466,3.241-3.241l0.012-0.544c0.023-1.134,0.626-2.177,1.596-2.763l0.465-0.282&#x9;c1.518-0.919,2.042-2.873,1.187-4.428L40.325,22.596z"></path><path fill="#fafafa" d="M23.999,9c-6.627,0-12,5.373-12,12s5.373,12,12,12s12-5.373,12-12S30.626,9,23.999,9z"></path><path fill="#cfd8dc" d="M24,34.001c-7.168,0-13-5.832-13-13S16.831,8,24,8s13,5.832,13,13S31.168,34.001,24,34.001z M24,10&#x9;c-6.066,0-11,4.935-11,11s4.935,11,11,11s11-4.935,11-11S30.065,10,24,10z"></path><path fill="#607d8b" d="M27.884,28h-7.557v-1.762l3.47-4.413c0.44-0.611,0.765-1.146,0.973-1.607 c0.208-0.461,0.313-0.903,0.313-1.326c0-0.57-0.098-1.016-0.295-1.339s-0.48-0.484-0.85-0.484c-0.405,0-0.727,0.188-0.964,0.564 c-0.238,0.376-0.357,0.904-0.357,1.585h-2.501c0-0.787,0.163-1.506,0.489-2.158c0.326-0.652,0.784-1.158,1.374-1.519 C22.569,15.181,23.237,15,23.982,15c1.145,0,2.033,0.316,2.664,0.947s0.947,1.528,0.947,2.691c0,0.722-0.175,1.455-0.524,2.197 s-0.982,1.657-1.898,2.744l-1.647,2.352h4.36V28z"></path></svg>