<svg xmlns="http://www.w3.org/2000/svg" viewBox="0 0 48 48" width="96px" height="96px"><path fill="#37474F" d="M15 16L6 8 6 6 15 6zM15 29L6 21 6 19 15 19zM15 42L6 34 6 32 15 32zM33 16L42 8 42 6 33 6zM33 29L42 21 42 19 33 19zM33 42L42 34 42 32 33 32z"></path><path fill="#546E7A" d="M33,43c0,1.104-0.896,2-2,2H17c-1.104,0-2-0.896-2-2V5c0-1.104,0.896-2,2-2h14c1.104,0,2,0.896,2,2V43z"></path><g><path fill="#263238" d="M24 18A6 6 0 1 0 24 30 6 6 0 1 0 24 18zM24 31A6 6 0 1 0 24 43 6 6 0 1 0 24 31zM24 5A6 6 0 1 0 24 17 6 6 0 1 0 24 5z"></path></g><path fill="#FFEB3B" d="M24 19.715A4.285 4.285 0 1 0 24 28.285A4.285 4.285 0 1 0 24 19.715Z"></path><path fill="#64DD17" d="M24 32.715A4.285 4.285 0 1 0 24 41.285A4.285 4.285 0 1 0 24 32.715Z"></path><path fill="#FF3D00" d="M24 6.715A4.285 4.285 0 1 0 24 15.285A4.285 4.285 0 1 0 24 6.715Z"></path></svg>